# xmcd
#
# Track frame offsets:
#	150
#	17771
#	36094
#	52365
#	65153
#	81451
#	98775
#	111617
#	126052
#	137679
#	154355
#
# Disc length: 2161 seconds
#
# Revision: 0
# Processed by: cddbd v1.5.2PL0 Copyright (c) Steve Scherf et al.
# Submitted via: EasyCDDAExtractor 16.0.6.1
#
DISCID=a6086f0b
DTITLE=Συλλογικός δίσκος - Τζιβαέρι
DYEAR=1900
DGENRE=Παραδοσιακή
TTITLE0=Πομώνη Χαρά - Η αγάπη είναι καρφίτσα
TTITLE1=Μπαγιώκης Γιώργος - Στό 'πα και στο ξαναλέω
TTITLE2=Γονή Διατσέντα - Τζιβαέρι
TTITLE3=Μαμμάση Αλεξάνδρα-Μαρούλης Βαγγέλης - Τα παιδιά της γειτονιάς σου
TTITLE4=Κατσάρης Γιώργος - Σμυρνιά
TTITLE5=Τάμπαρης Γιώργος - Σε καινούργια βάρκα μπήκα
TTITLE6=Μαμμάση Αλεξάνδρα - Σκερτσοπεταχτό
TTITLE7=Τάμπαρης Γιώργος-Γονή Διατσέντα - Δεν σε θέλω πια
TTITLE8=Μαμμάση Αλεξάνδρα - Μαρίτσα
TTITLE9=Μαρούλης Βαγγέλης - Προσφυγάκι
TTITLE10=Άνευ ερμηνευτού - Τη υπερμάχω [ορχηστρικό]
EXTD=
EXTT0=
EXTT1=
EXTT2=
EXTT3=
EXTT4=
EXTT5=
EXTT6=
EXTT7=
EXTT8=
EXTT9=
EXTT10=
PLAYORDER=
